Coordinates
version=1
nRows=9
nColumns=42
inDegrees=yes

Units are S.I. units (second, meters, Newtons, ...)
If the header above contains a line with 'inDegrees', this indicates whether rotational values are in degrees (yes) or radians (no).

endheader
time	pelvis_tilt	pelvis_list	pelvis_rotation	pelvis_tx	pelvis_ty	pelvis_tz	hip_flexion_r	hip_adduction_r	hip_rotation_r	knee_angle_r	knee_adduction_r	knee_angle_r_beta	ankle_angle_r	subtalar_angle_r	mtp_angle_r	hip_flexion_l	hip_adduction_l	hip_rotation_l	knee_angle_l	knee_adduction_l	knee_angle_l_beta	ankle_angle_l	subtalar_angle_l	mtp_angle_l	lumbar_extension	lumbar_bending	lumbar_rotation	arm_flex_r	arm_add_r	arm_rot_r	elbow_flex_r	pro_sup_r	wrist_flex_r	wrist_dev_r	arm_flex_l	arm_add_l	arm_rot_l	elbow_flex_l	pro_sup_l	wrist_flex_l	wrist_dev_l
      2.91000000	     -4.55235606	      0.46454128	     -0.31993029	      1.53806784	      0.93685204	     -0.06725708	     -5.91789546	      3.78954449	      1.72161985	      4.05331418	     -7.85067606	      0.07074368	     22.23726586	      6.55350816	     -7.50049900	     31.39632598	     -0.74422329	      5.15543792	     25.53052306	     -0.12505535	      0.44559169	      4.18055320	    -15.55890518	     -7.50049900	     -2.08783117	     -4.29690422	     -0.67915035	      3.22521386	    -13.49782647	      1.72211554	     33.11295342	     90.00000001	      0.00000000	      0.00000000	    -12.15521956	    -11.30553003	    -12.38295165	     17.76855440	     90.00000001	      0.00000000	      0.00000000
      2.92000000	     -4.88902995	     -0.02456154	     -0.35414579	      1.54803532	      0.93385743	     -0.06777210	     -6.24170237	      4.27843995	      1.52785822	      4.07530818	     -7.84002992	      0.07112755	     22.80769451	      6.79850326	     -7.50048856	     31.73966856	     -1.19412739	      5.29941706	     22.02934117	     -0.92982423	      0.38448454	      4.06490985	    -14.27292242	     -7.50048856	     -1.86651825	     -3.80366236	     -0.57761688	      3.81789890	    -13.83151584	      2.19239680	     33.03271178	     90.00000001	      0.00000000	      0.00000000	    -12.64772337	    -11.15115080	    -12.55199777	     17.68245270	     90.00000001	      0.00000000	      0.00000000
      2.93000000	     -5.27591211	     -0.56733238	     -0.44112666	      1.55808217	      0.93071719	     -0.06824361	     -6.50163341	      4.86734809	      1.40458474	      4.13806282	     -7.92451319	      0.07222282	     23.35095979	      7.06078491	     -7.50048011	     32.17229903	     -1.72912605	      5.13165199	     18.82345099	     -1.82053233	      0.32853120	      3.93051186	    -12.79608019	     -7.50048011	     -1.57229361	     -3.24733450	     -0.42734152	      4.35376826	    -14.14424329	      2.59744497	     32.94842193	     90.00000001	      0.00000000	      0.00000000	    -13.11854006	    -10.97802599	    -12.67500650	     17.61696240	     90.00000001	      0.00000000	      0.00000000
      2.94000000	     -5.50654020	     -1.04429820	     -0.52842190	      1.56829471	      0.92775844	     -0.06880743	     -6.91624178	      5.30237067	      1.23639654	      4.26830900	     -7.84017389	      0.07449605	     23.88533910	      7.37133640	     -7.50047010	     32.38746597	     -2.24004315	      4.67602057	     15.78413834	     -2.62082444	      0.27548518	      3.92842749	    -10.94483499	     -7.50047010	     -1.46139205	     -2.76641424	     -0.35323845	      4.92180786	    -14.41729373	      3.04536944	     32.88014257	     90.00000001	      0.00000000	      0.00000000	    -13.53595964	    -10.81174243	    -12.84956268	     17.48122339	     90.00000001	      0.00000000	      0.00000000
      2.95000000	     -5.43163685	     -1.39286922	     -0.72159964	      1.57907737	      0.92512210	     -0.06948426	     -7.70558018	      5.53453732	      0.77575233	      4.33148084	     -7.72561952	      0.07559860	     24.49352235	      8.21382605	     -7.50044147	     32.43163656	     -2.68234530	      2.87170659	     13.39681758	     -3.51941639	      0.23381858	      4.65258194	     -7.52836302	     -7.50044147	     -1.65311221	     -2.41381019	     -0.15037393	      5.38626716	    -14.73300922	      3.54893229	     32.89851081	     90.00000001	      0.00000000	      0.00000000	    -13.82028948	    -10.60361720	    -13.46469911	     17.26640376	     90.00000001	      0.00000000	      0.00000000
      2.96000000	     -5.70999489	     -1.88535394	     -0.95079316	      1.58945099	      0.92212722	     -0.07000929	     -7.96179627	      6.00991871	      0.62326490	      4.69408148	     -7.73096479	      0.08192718	     25.02646531	      8.43025257	     -7.50042057	     33.01888532	     -3.36447116	      1.21071142	     11.54323001	     -4.04551128	      0.20146737	      5.23190571	     -4.60207867	     -7.50042057	     -1.47762108	     -1.90722695	      0.08588467	      5.82344020	    -14.96763726	      3.80360385	     32.85186354	     90.00000001	      0.00000000	      0.00000000	    -14.11244932	    -10.43591739	    -13.65761005	     17.09695502	     90.00000001	      0.00000000	      0.00000000
      2.97000000	     -6.12503334	     -2.35537546	     -1.15208512	      1.59985787	      0.91910356	     -0.07051564	     -8.12539223	      6.50964479	      0.69170017	      4.96289312	     -7.83096793	      0.08661883	     25.41419687	      8.55604824	     -7.50041430	     33.68231472	     -4.00417380	      0.10034822	      9.96710554	     -4.32920107	      0.17395881	      5.13915639	     -3.24660195	     -7.50041430	     -1.14341458	     -1.44061036	      0.33000868	      6.15560987	    -15.13927546	      3.91937850	     32.71427685	     90.00000001	      0.00000000	      0.00000000	    -14.42084264	    -10.32206626	    -13.68986878	     17.04242463	     90.00000001	      0.00000000	      0.00000000
      2.98000000	     -6.10205679	     -2.58372025	     -1.52819211	      1.61091924	      0.91664962	     -0.07124719	     -8.73800588	      6.56340434	      0.63786664	      5.37532778	     -7.70611740	      0.09381717	     25.89187750	      8.87720321	     -7.50038748	     34.24750415	     -4.63565316	     -3.43732901	      9.49432659	     -4.49659309	      0.16570726	      6.82354105	      2.02293032	     -7.50038748	     -1.26258562	     -1.20546193	      0.70395937	      6.44801102	    -15.32694814	      4.01801324	     32.75220422	     90.00000001	      0.00000000	      0.00000000	    -14.58116404	    -10.16104981	    -14.05724752	     16.80742430	     90.00000001	      0.00000000	      0.00000000
      2.99000000	     -6.29377921	     -2.82739868	     -1.78753886	      1.62171104	      0.91416469	     -0.07203613	     -9.09680465	      6.69138094	      0.71711183	      5.80567238	     -7.65251960	      0.10132810	     26.20876357	      8.93683755	     -7.50036354	     34.78301239	     -5.11848175	     -5.34901726	      9.00994488	     -4.51871042	      0.15725320	      7.33076492	      4.49064952	     -7.50036354	     -1.17599806	     -0.97848428	      0.98054489	      6.69171189	    -15.41581420	      3.96655183	     32.68632856	     90.00000001	      0.00000000	      0.00000000	    -14.70398178	    -10.07177294	    -14.24489786	     16.63351554	     90.00000001	      0.00000000	      0.00000000
